<svg xmlns="http://www.w3.org/2000/svg" width="28" height="28" fill="none" viewBox="0 0 28 28"><g clip-path="url(#clip0_208_1367)"><path fill="#0072C6" d="M17.484 5.93701V11.414L19.4 12.619C19.4692 12.6342 19.5408 12.6342 19.61 12.619L27.848 7.06501C27.842 6.79546 27.7434 6.5362 27.5687 6.33078C27.3941 6.12537 27.1541 5.98632 26.889 5.93701H17.484Z"/><path fill="#0072C6" d="M17.484 13.4571L19.231 14.6571C19.3128 14.7069 19.4067 14.7332 19.5025 14.7332C19.5983 14.7332 19.6922 14.7069 19.774 14.6571C19.474 14.8381 27.847 9.27905 27.847 9.27905V19.3451C27.8688 19.549 27.8458 19.7553 27.7796 19.9495C27.7134 20.1436 27.6055 20.3209 27.4636 20.4691C27.3217 20.6172 27.1491 20.7325 26.958 20.8069C26.7668 20.8814 26.5617 20.9132 26.357 20.9001H17.483L17.484 13.4571ZM8.43999 10.9321C8.14972 10.9307 7.86448 11.0078 7.61449 11.1553C7.3645 11.3029 7.15908 11.5153 7.01999 11.7701C6.6401 12.4454 6.45783 13.214 6.49399 13.9881C6.45451 14.7605 6.63704 15.5281 7.01999 16.2001C7.1585 16.4443 7.35886 16.6479 7.60095 16.7902C7.84304 16.9325 8.11832 17.0086 8.39914 17.0109C8.67996 17.0131 8.95641 16.9414 9.20073 16.8029C9.44505 16.6644 9.64862 16.4641 9.79099 16.2221C10.1698 15.5532 10.3485 14.7896 10.306 14.0221C10.3494 13.2304 10.1765 12.4419 9.80599 11.7411C9.67357 11.4946 9.47635 11.289 9.23561 11.1464C8.99488 11.0038 8.71977 10.9297 8.43999 10.9321Z"/><path fill="#0072C6" d="M0.153015 3.155V24.582L16.453 28V0L0.153015 3.155ZM11.061 17.491C10.7561 17.9209 10.3507 18.2696 9.88004 18.5068C9.40943 18.744 8.88793 18.8626 8.36102 18.852C7.84736 18.8611 7.3391 18.7461 6.87947 18.5166C6.41983 18.2871 6.02241 17.95 5.72101 17.534C5.0062 16.536 4.64862 15.3262 4.70601 14.1C4.64521 12.8136 5.00925 11.543 5.74201 10.484C6.05078 10.0459 6.46259 9.69055 6.94111 9.4492C7.41964 9.20784 7.9502 9.08792 8.48602 9.1C8.99595 9.08977 9.5006 9.20486 9.95567 9.43519C10.4107 9.66551 10.8023 10.004 11.096 10.421C11.8037 11.4406 12.1552 12.6653 12.096 13.905C12.1584 15.182 11.7943 16.4436 11.061 17.491Z"/></g><defs><clipPath id="clip0_208_1367"><rect width="28" height="28" fill="#fff"/></clipPath></defs></svg>