<svg width="20" height="16" viewBox="0 0 20 16" fill="none" xmlns="http://www.w3.org/2000/svg">
<g clip-path="url(#clip0_207_1361)">
<path d="M4.54547 15.0038V7.27649L2.14898 5.08407L0 3.86743V13.6402C0 14.3947 0.611328 15.0038 1.36367 15.0038H4.54547Z" fill="#4285F4"/>
<path d="M15.4545 15.004H18.6363C19.3909 15.004 20 14.3926 20 13.6403V3.86768L17.5659 5.26119L15.4545 7.27666V15.004Z" fill="#34A853"/>
<path d="M4.54545 7.27649L4.21936 4.2572L4.54545 1.36743L9.99999 5.45837L15.4545 1.36743L15.8193 4.10118L15.4545 7.27649L9.99999 11.3674L4.54545 7.27649Z" fill="#EA4335"/>
<path d="M15.4545 1.36748V7.27654L20 3.86748V2.04927C20 0.362945 18.075 -0.598383 16.7273 0.412945L15.4545 1.36748Z" fill="#FBBC04"/>
<path d="M0 3.86751L2.09055 5.43548L4.54547 7.27657V1.36751L3.27266 0.41298C1.92266 -0.598426 0 0.36298 0 2.04923V3.86743V3.86751Z" fill="#C5221F"/>
</g>
<defs>
<clipPath id="clip0_207_1361">
<rect width="20" height="15.0781" fill="white"/>
</clipPath>
</defs>
</svg>
